<svg xmlns="http://www.w3.org/2000/svg" xmlns:xlink="http://www.w3.org/1999/xlink" width="1440" zoomAndPan="magnify" viewBox="0 0 1080 1079.999946" height="1440" preserveAspectRatio="xMidYMid meet" version="1.0"><path fill="#cedce1" d="M 1008.007812 1080 L 71.992188 1080 C 70.816406 1080 69.636719 1079.972656 68.460938 1079.914062 C 67.285156 1079.855469 66.109375 1079.769531 64.9375 1079.652344 C 63.765625 1079.539062 62.59375 1079.394531 61.429688 1079.21875 C 60.265625 1079.046875 59.105469 1078.847656 57.949219 1078.617188 C 56.792969 1078.386719 55.644531 1078.128906 54.5 1077.84375 C 53.355469 1077.554688 52.222656 1077.242188 51.09375 1076.898438 C 49.96875 1076.558594 48.847656 1076.1875 47.738281 1075.792969 C 46.628906 1075.394531 45.53125 1074.96875 44.441406 1074.519531 C 43.355469 1074.070312 42.277344 1073.589844 41.210938 1073.085938 C 40.148438 1072.585938 39.09375 1072.054688 38.054688 1071.5 C 37.015625 1070.945312 35.992188 1070.363281 34.980469 1069.757812 C 33.96875 1069.152344 32.976562 1068.519531 31.996094 1067.867188 C 31.015625 1067.210938 30.054688 1066.535156 29.105469 1065.832031 C 28.160156 1065.128906 27.230469 1064.40625 26.320312 1063.660156 C 25.410156 1062.910156 24.519531 1062.140625 23.644531 1061.351562 C 22.773438 1060.558594 21.917969 1059.746094 21.085938 1058.914062 C 20.253906 1058.082031 19.441406 1057.226562 18.648438 1056.355469 C 17.859375 1055.480469 17.089844 1054.589844 16.339844 1053.679688 C 15.59375 1052.769531 14.871094 1051.839844 14.167969 1050.894531 C 13.464844 1049.945312 12.789062 1048.984375 12.132812 1048.003906 C 11.476562 1047.023438 10.847656 1046.027344 10.242188 1045.019531 C 9.636719 1044.007812 9.054688 1042.984375 8.5 1041.945312 C 7.945312 1040.90625 7.414062 1039.851562 6.914062 1038.789062 C 6.410156 1037.722656 5.929688 1036.644531 5.480469 1035.558594 C 5.03125 1034.46875 4.605469 1033.371094 4.207031 1032.261719 C 3.8125 1031.152344 3.441406 1030.03125 3.101562 1028.90625 C 2.757812 1027.777344 2.445312 1026.644531 2.15625 1025.5 C 1.871094 1024.355469 1.613281 1023.207031 1.382812 1022.050781 C 1.152344 1020.894531 0.953125 1019.734375 0.777344 1018.570312 C 0.605469 1017.40625 0.460938 1016.234375 0.347656 1015.0625 C 0.230469 1013.890625 0.144531 1012.714844 0.0859375 1011.539062 C 0.0273438 1010.363281 0 1009.183594 0 1008.007812 L 0 935.992188 C 0 934.816406 0.0273438 933.636719 0.0859375 932.460938 C 0.144531 931.285156 0.230469 930.109375 0.347656 928.9375 C 0.460938 927.765625 0.605469 926.59375 0.78125 925.429688 C 0.953125 924.265625 1.152344 923.101562 1.382812 921.949219 C 1.613281 920.792969 1.871094 919.644531 2.15625 918.5 C 2.445312 917.355469 2.757812 916.222656 3.101562 915.09375 C 3.441406 913.96875 3.8125 912.847656 4.207031 911.738281 C 4.605469 910.628906 5.03125 909.53125 5.480469 908.441406 C 5.929688 907.355469 6.410156 906.277344 6.914062 905.210938 C 7.414062 904.148438 7.945312 903.09375 8.5 902.054688 C 9.054688 901.015625 9.636719 899.992188 10.242188 898.980469 C 10.847656 897.96875 11.476562 896.976562 12.132812 895.996094 C 12.789062 895.015625 13.464844 894.054688 14.167969 893.105469 C 14.871094 892.160156 15.59375 891.230469 16.339844 890.320312 C 17.089844 889.410156 17.859375 888.519531 18.648438 887.644531 C 19.441406 886.773438 20.253906 885.917969 21.085938 885.085938 C 21.917969 884.253906 22.773438 883.441406 23.644531 882.648438 C 24.519531 881.859375 25.410156 881.089844 26.320312 880.339844 C 27.230469 879.59375 28.160156 878.871094 29.105469 878.167969 C 30.054688 877.464844 31.015625 876.789062 31.996094 876.132812 C 32.976562 875.476562 33.96875 874.847656 34.980469 874.242188 C 35.992188 873.636719 37.015625 873.054688 38.054688 872.5 C 39.09375 871.945312 40.148438 871.414062 41.210938 870.910156 C 42.277344 870.410156 43.355469 869.929688 44.441406 869.480469 C 45.53125 869.027344 46.628906 868.605469 47.738281 868.207031 C 48.847656 867.8125 49.96875 867.441406 51.09375 867.101562 C 52.222656 866.757812 53.355469 866.445312 54.5 866.15625 C 55.644531 865.871094 56.792969 865.613281 57.949219 865.382812 C 59.101562 865.152344 60.265625 864.953125 61.429688 864.777344 C 62.59375 864.605469 63.765625 864.460938 64.9375 864.347656 C 66.109375 864.230469 67.285156 864.144531 68.460938 864.085938 C 69.636719 864.027344 70.816406 864 71.992188 864 L 1008.007812 864 C 1009.183594 864 1010.363281 864.027344 1011.539062 864.085938 C 1012.714844 864.144531 1013.890625 864.230469 1015.0625 864.347656 C 1016.234375 864.460938 1017.40625 864.605469 1018.570312 864.777344 C 1019.734375 864.953125 1020.898438 865.152344 1022.050781 865.382812 C 1023.207031 865.613281 1024.355469 865.871094 1025.5 866.15625 C 1026.644531 866.445312 1027.777344 866.757812 1028.90625 867.101562 C 1030.03125 867.441406 1031.152344 867.8125 1032.261719 868.207031 C 1033.371094 868.605469 1034.46875 869.027344 1035.558594 869.480469 C 1036.644531 869.929688 1037.722656 870.410156 1038.789062 870.910156 C 1039.851562 871.414062 1040.90625 871.945312 1041.945312 872.5 C 1042.984375 873.054688 1044.007812 873.636719 1045.019531 874.242188 C 1046.03125 874.847656 1047.023438 875.476562 1048.003906 876.132812 C 1048.984375 876.789062 1049.945312 877.464844 1050.894531 878.167969 C 1051.839844 878.871094 1052.769531 879.59375 1053.679688 880.339844 C 1054.589844 881.089844 1055.480469 881.859375 1056.355469 882.648438 C 1057.226562 883.441406 1058.082031 884.253906 1058.914062 885.085938 C 1059.746094 885.917969 1060.558594 886.773438 1061.351562 887.644531 C 1062.140625 888.519531 1062.910156 889.410156 1063.660156 890.320312 C 1064.40625 891.230469 1065.128906 892.160156 1065.832031 893.105469 C 1066.535156 894.054688 1067.210938 895.015625 1067.867188 895.996094 C 1068.523438 896.976562 1069.152344 897.96875 1069.757812 898.980469 C 1070.363281 899.992188 1070.945312 901.015625 1071.5 902.054688 C 1072.054688 903.09375 1072.585938 904.148438 1073.085938 905.210938 C 1073.589844 906.277344 1074.070312 907.355469 1074.519531 908.441406 C 1074.96875 909.53125 1075.394531 910.628906 1075.792969 911.738281 C 1076.1875 912.847656 1076.558594 913.96875 1076.898438 915.09375 C 1077.242188 916.222656 1077.554688 917.355469 1077.84375 918.5 C 1078.128906 919.644531 1078.386719 920.792969 1078.617188 921.949219 C 1078.847656 923.101562 1079.046875 924.265625 1079.222656 925.429688 C 1079.394531 926.59375 1079.539062 927.765625 1079.652344 928.9375 C 1079.769531 930.109375 1079.855469 931.285156 1079.914062 932.460938 C 1079.972656 933.636719 1080 934.816406 1080 935.992188 L 1080 1008.007812 C 1080 1009.183594 1079.972656 1010.363281 1079.914062 1011.539062 C 1079.855469 1012.714844 1079.769531 1013.890625 1079.652344 1015.0625 C 1079.539062 1016.234375 1079.394531 1017.40625 1079.222656 1018.570312 C 1079.046875 1019.734375 1078.847656 1020.894531 1078.617188 1022.050781 C 1078.386719 1023.207031 1078.128906 1024.355469 1077.84375 1025.5 C 1077.554688 1026.644531 1077.242188 1027.777344 1076.898438 1028.90625 C 1076.558594 1030.03125 1076.1875 1031.152344 1075.792969 1032.261719 C 1075.394531 1033.371094 1074.96875 1034.46875 1074.519531 1035.558594 C 1074.070312 1036.644531 1073.589844 1037.722656 1073.085938 1038.789062 C 1072.585938 1039.851562 1072.054688 1040.90625 1071.5 1041.945312 C 1070.945312 1042.984375 1070.363281 1044.007812 1069.757812 1045.019531 C 1069.152344 1046.027344 1068.523438 1047.023438 1067.867188 1048.003906 C 1067.210938 1048.984375 1066.535156 1049.945312 1065.832031 1050.894531 C 1065.128906 1051.839844 1064.40625 1052.769531 1063.660156 1053.679688 C 1062.910156 1054.589844 1062.140625 1055.480469 1061.351562 1056.355469 C 1060.558594 1057.226562 1059.746094 1058.082031 1058.914062 1058.914062 C 1058.082031 1059.746094 1057.226562 1060.558594 1056.355469 1061.351562 C 1055.480469 1062.140625 1054.589844 1062.910156 1053.679688 1063.660156 C 1052.769531 1064.40625 1051.839844 1065.128906 1050.894531 1065.832031 C 1049.945312 1066.535156 1048.984375 1067.210938 1048.003906 1067.867188 C 1047.023438 1068.519531 1046.03125 1069.152344 1045.019531 1069.757812 C 1044.007812 1070.363281 1042.984375 1070.945312 1041.945312 1071.5 C 1040.90625 1072.054688 1039.851562 1072.585938 1038.789062 1073.085938 C 1037.722656 1073.589844 1036.644531 1074.070312 1035.558594 1074.519531 C 1034.46875 1074.96875 1033.371094 1075.394531 1032.261719 1075.792969 C 1031.152344 1076.1875 1030.03125 1076.558594 1028.90625 1076.898438 C 1027.777344 1077.242188 1026.644531 1077.554688 1025.5 1077.84375 C 1024.355469 1078.128906 1023.207031 1078.386719 1022.050781 1078.617188 C 1020.898438 1078.847656 1019.734375 1079.046875 1018.570312 1079.21875 C 1017.40625 1079.394531 1016.234375 1079.539062 1015.0625 1079.652344 C 1013.890625 1079.769531 1012.714844 1079.855469 1011.539062 1079.914062 C 1010.363281 1079.972656 1009.183594 1080 1008.007812 1080 Z M 1008.007812 1080 " fill-opacity="1" fill-rule="nonzero"/><path fill="#faf7f5" d="M 1008.007812 648 L 71.992188 648 C 70.816406 648 69.636719 647.972656 68.460938 647.914062 C 67.285156 647.855469 66.109375 647.769531 64.9375 647.652344 C 63.765625 647.539062 62.59375 647.394531 61.429688 647.222656 C 60.265625 647.046875 59.105469 646.847656 57.949219 646.617188 C 56.792969 646.386719 55.644531 646.128906 54.5 645.84375 C 53.355469 645.554688 52.222656 645.242188 51.09375 644.898438 C 49.96875 644.558594 48.847656 644.1875 47.738281 643.792969 C 46.628906 643.394531 45.53125 642.972656 44.441406 642.519531 C 43.355469 642.070312 42.277344 641.589844 41.210938 641.085938 C 40.148438 640.585938 39.09375 640.054688 38.054688 639.5 C 37.015625 638.945312 35.992188 638.363281 34.980469 637.757812 C 33.96875 637.152344 32.976562 636.523438 31.996094 635.867188 C 31.015625 635.210938 30.054688 634.535156 29.105469 633.832031 C 28.160156 633.128906 27.230469 632.40625 26.320312 631.660156 C 25.410156 630.910156 24.519531 630.140625 23.644531 629.351562 C 22.773438 628.558594 21.917969 627.746094 21.085938 626.914062 C 20.253906 626.082031 19.441406 625.226562 18.648438 624.355469 C 17.859375 623.480469 17.089844 622.589844 16.339844 621.679688 C 15.59375 620.769531 14.871094 619.839844 14.167969 618.894531 C 13.464844 617.945312 12.789062 616.984375 12.132812 616.003906 C 11.476562 615.023438 10.847656 614.03125 10.242188 613.019531 C 9.636719 612.007812 9.054688 610.984375 8.5 609.945312 C 7.945312 608.90625 7.414062 607.851562 6.914062 606.789062 C 6.410156 605.722656 5.929688 604.644531 5.480469 603.558594 C 5.03125 602.46875 4.605469 601.371094 4.207031 600.261719 C 3.8125 599.152344 3.441406 598.03125 3.101562 596.90625 C 2.757812 595.777344 2.445312 594.644531 2.15625 593.5 C 1.871094 592.355469 1.613281 591.207031 1.382812 590.050781 C 1.152344 588.898438 0.953125 587.734375 0.777344 586.570312 C 0.605469 585.40625 0.460938 584.234375 0.347656 583.0625 C 0.230469 581.890625 0.144531 580.714844 0.0859375 579.539062 C 0.0273438 578.363281 0 577.183594 0 576.007812 L 0 503.992188 C 0 502.816406 0.0273438 501.636719 0.0859375 500.460938 C 0.144531 499.285156 0.230469 498.109375 0.347656 496.9375 C 0.460938 495.765625 0.605469 494.59375 0.78125 493.429688 C 0.953125 492.265625 1.152344 491.101562 1.382812 489.949219 C 1.613281 488.792969 1.871094 487.644531 2.15625 486.5 C 2.445312 485.355469 2.757812 484.222656 3.101562 483.09375 C 3.441406 481.96875 3.8125 480.847656 4.207031 479.738281 C 4.605469 478.628906 5.03125 477.53125 5.480469 476.441406 C 5.929688 475.355469 6.410156 474.277344 6.914062 473.210938 C 7.414062 472.148438 7.945312 471.09375 8.5 470.054688 C 9.054688 469.015625 9.636719 467.992188 10.242188 466.980469 C 10.847656 465.96875 11.476562 464.976562 12.132812 463.996094 C 12.789062 463.015625 13.464844 462.054688 14.167969 461.105469 C 14.871094 460.160156 15.59375 459.230469 16.339844 458.320312 C 17.089844 457.410156 17.859375 456.519531 18.648438 455.644531 C 19.441406 454.773438 20.253906 453.917969 21.085938 453.085938 C 21.917969 452.253906 22.773438 451.441406 23.644531 450.648438 C 24.519531 449.859375 25.410156 449.089844 26.320312 448.339844 C 27.230469 447.59375 28.160156 446.871094 29.105469 446.167969 C 30.054688 445.464844 31.015625 444.789062 31.996094 444.132812 C 32.976562 443.476562 33.96875 442.847656 34.980469 442.242188 C 35.992188 441.636719 37.015625 441.054688 38.054688 440.5 C 39.09375 439.945312 40.148438 439.414062 41.210938 438.910156 C 42.277344 438.410156 43.355469 437.929688 44.441406 437.480469 C 45.53125 437.027344 46.628906 436.605469 47.738281 436.207031 C 48.847656 435.8125 49.96875 435.441406 51.09375 435.101562 C 52.222656 434.757812 53.355469 434.445312 54.5 434.15625 C 55.644531 433.871094 56.792969 433.613281 57.949219 433.382812 C 59.101562 433.152344 60.265625 432.953125 61.429688 432.777344 C 62.59375 432.605469 63.765625 432.460938 64.9375 432.347656 C 66.109375 432.230469 67.285156 432.144531 68.460938 432.085938 C 69.636719 432.027344 70.816406 432 71.992188 432 L 1008.007812 432 C 1009.183594 432 1010.363281 432.027344 1011.539062 432.085938 C 1012.714844 432.144531 1013.890625 432.230469 1015.0625 432.347656 C 1016.234375 432.460938 1017.40625 432.605469 1018.570312 432.777344 C 1019.734375 432.953125 1020.898438 433.152344 1022.050781 433.382812 C 1023.207031 433.613281 1024.355469 433.871094 1025.5 434.15625 C 1026.644531 434.445312 1027.777344 434.757812 1028.90625 435.101562 C 1030.03125 435.441406 1031.152344 435.8125 1032.261719 436.207031 C 1033.371094 436.605469 1034.46875 437.027344 1035.558594 437.480469 C 1036.644531 437.929688 1037.722656 438.410156 1038.789062 438.910156 C 1039.851562 439.414062 1040.90625 439.945312 1041.945312 440.5 C 1042.984375 441.054688 1044.007812 441.636719 1045.019531 442.242188 C 1046.03125 442.847656 1047.023438 443.476562 1048.003906 444.132812 C 1048.984375 444.789062 1049.945312 445.464844 1050.894531 446.167969 C 1051.839844 446.871094 1052.769531 447.59375 1053.679688 448.339844 C 1054.589844 449.089844 1055.480469 449.859375 1056.355469 450.648438 C 1057.226562 451.441406 1058.082031 452.253906 1058.914062 453.085938 C 1059.746094 453.917969 1060.558594 454.773438 1061.351562 455.644531 C 1062.140625 456.519531 1062.910156 457.410156 1063.660156 458.320312 C 1064.40625 459.230469 1065.128906 460.160156 1065.832031 461.105469 C 1066.535156 462.054688 1067.210938 463.015625 1067.867188 463.996094 C 1068.523438 464.976562 1069.152344 465.96875 1069.757812 466.980469 C 1070.363281 467.992188 1070.945312 469.015625 1071.5 470.054688 C 1072.054688 471.09375 1072.585938 472.148438 1073.085938 473.210938 C 1073.589844 474.277344 1074.070312 475.355469 1074.519531 476.441406 C 1074.96875 477.53125 1075.394531 478.628906 1075.792969 479.738281 C 1076.1875 480.847656 1076.558594 481.96875 1076.898438 483.09375 C 1077.242188 484.222656 1077.554688 485.355469 1077.84375 486.5 C 1078.128906 487.644531 1078.386719 488.792969 1078.617188 489.949219 C 1078.847656 491.101562 1079.046875 492.265625 1079.222656 493.429688 C 1079.394531 494.59375 1079.539062 495.765625 1079.652344 496.9375 C 1079.769531 498.109375 1079.855469 499.285156 1079.914062 500.460938 C 1079.972656 501.636719 1080 502.816406 1080 503.992188 L 1080 576.007812 C 1080 577.183594 1079.972656 578.363281 1079.914062 579.539062 C 1079.855469 580.714844 1079.769531 581.890625 1079.652344 583.0625 C 1079.539062 584.234375 1079.394531 585.40625 1079.222656 586.570312 C 1079.046875 587.734375 1078.847656 588.898438 1078.617188 590.050781 C 1078.386719 591.207031 1078.128906 592.355469 1077.84375 593.5 C 1077.554688 594.644531 1077.242188 595.777344 1076.898438 596.90625 C 1076.558594 598.03125 1076.1875 599.152344 1075.792969 600.261719 C 1075.394531 601.371094 1074.96875 602.46875 1074.519531 603.558594 C 1074.070312 604.644531 1073.589844 605.722656 1073.085938 606.789062 C 1072.585938 607.851562 1072.054688 608.90625 1071.5 609.945312 C 1070.945312 610.984375 1070.363281 612.007812 1069.757812 613.019531 C 1069.152344 614.03125 1068.523438 615.023438 1067.867188 616.003906 C 1067.210938 616.984375 1066.535156 617.945312 1065.832031 618.894531 C 1065.128906 619.839844 1064.40625 620.769531 1063.660156 621.679688 C 1062.910156 622.589844 1062.140625 623.480469 1061.351562 624.355469 C 1060.558594 625.226562 1059.746094 626.082031 1058.914062 626.914062 C 1058.082031 627.746094 1057.226562 628.558594 1056.355469 629.351562 C 1055.480469 630.140625 1054.589844 630.910156 1053.679688 631.660156 C 1052.769531 632.40625 1051.839844 633.128906 1050.894531 633.832031 C 1049.945312 634.535156 1048.984375 635.210938 1048.003906 635.867188 C 1047.023438 636.523438 1046.03125 637.152344 1045.019531 637.757812 C 1044.007812 638.363281 1042.984375 638.945312 1041.945312 639.5 C 1040.90625 640.054688 1039.851562 640.585938 1038.789062 641.085938 C 1037.722656 641.589844 1036.644531 642.070312 1035.558594 642.519531 C 1034.46875 642.972656 1033.371094 643.394531 1032.261719 643.792969 C 1031.152344 644.1875 1030.03125 644.558594 1028.90625 644.898438 C 1027.777344 645.242188 1026.644531 645.554688 1025.5 645.84375 C 1024.355469 646.128906 1023.207031 646.386719 1022.050781 646.617188 C 1020.898438 646.847656 1019.734375 647.046875 1018.570312 647.21875 C 1017.40625 647.394531 1016.234375 647.539062 1015.0625 647.652344 C 1013.890625 647.769531 1012.714844 647.855469 1011.539062 647.914062 C 1010.363281 647.972656 1009.183594 648 1008.007812 648 Z M 1008.007812 648 " fill-opacity="1" fill-rule="nonzero"/><path fill="#faf7f5" d="M 1008.007812 216 L 71.992188 216 C 70.816406 216 69.636719 215.972656 68.460938 215.914062 C 67.285156 215.855469 66.109375 215.769531 64.9375 215.652344 C 63.765625 215.539062 62.59375 215.394531 61.429688 215.222656 C 60.265625 215.046875 59.105469 214.847656 57.949219 214.617188 C 56.792969 214.386719 55.644531 214.128906 54.5 213.84375 C 53.355469 213.554688 52.222656 213.242188 51.09375 212.898438 C 49.96875 212.558594 48.847656 212.1875 47.738281 211.792969 C 46.628906 211.394531 45.53125 210.972656 44.441406 210.519531 C 43.355469 210.070312 42.277344 209.589844 41.210938 209.089844 C 40.148438 208.585938 39.09375 208.054688 38.054688 207.5 C 37.015625 206.945312 35.992188 206.363281 34.980469 205.757812 C 33.96875 205.152344 32.976562 204.523438 31.996094 203.867188 C 31.015625 203.210938 30.054688 202.535156 29.105469 201.832031 C 28.160156 201.128906 27.230469 200.40625 26.320312 199.660156 C 25.410156 198.910156 24.519531 198.140625 23.644531 197.351562 C 22.773438 196.558594 21.917969 195.746094 21.085938 194.914062 C 20.253906 194.082031 19.441406 193.226562 18.648438 192.355469 C 17.859375 191.480469 17.089844 190.589844 16.339844 189.679688 C 15.59375 188.769531 14.871094 187.839844 14.167969 186.894531 C 13.464844 185.945312 12.789062 184.984375 12.132812 184.003906 C 11.476562 183.023438 10.847656 182.03125 10.242188 181.019531 C 9.636719 180.007812 9.054688 178.984375 8.5 177.945312 C 7.945312 176.90625 7.414062 175.851562 6.914062 174.789062 C 6.410156 173.722656 5.929688 172.644531 5.480469 171.558594 C 5.03125 170.46875 4.605469 169.371094 4.207031 168.261719 C 3.8125 167.152344 3.441406 166.03125 3.101562 164.90625 C 2.757812 163.777344 2.445312 162.644531 2.15625 161.5 C 1.871094 160.355469 1.613281 159.207031 1.382812 158.050781 C 1.152344 156.898438 0.953125 155.734375 0.777344 154.570312 C 0.605469 153.40625 0.460938 152.234375 0.347656 151.0625 C 0.230469 149.890625 0.144531 148.714844 0.0859375 147.539062 C 0.0273438 146.363281 0 145.183594 0 144.007812 L 0 71.992188 C 0 70.816406 0.0273438 69.636719 0.0859375 68.460938 C 0.144531 67.285156 0.230469 66.109375 0.347656 64.9375 C 0.460938 63.765625 0.605469 62.59375 0.78125 61.429688 C 0.953125 60.265625 1.152344 59.101562 1.382812 57.949219 C 1.613281 56.792969 1.871094 55.644531 2.15625 54.5 C 2.445312 53.355469 2.757812 52.222656 3.101562 51.09375 C 3.441406 49.96875 3.8125 48.847656 4.207031 47.738281 C 4.605469 46.628906 5.03125 45.53125 5.480469 44.441406 C 5.929688 43.355469 6.410156 42.277344 6.914062 41.210938 C 7.414062 40.148438 7.945312 39.09375 8.5 38.054688 C 9.054688 37.015625 9.636719 35.992188 10.242188 34.980469 C 10.847656 33.96875 11.476562 32.976562 12.132812 31.996094 C 12.789062 31.015625 13.464844 30.054688 14.167969 29.105469 C 14.871094 28.160156 15.59375 27.230469 16.339844 26.320312 C 17.089844 25.410156 17.859375 24.519531 18.648438 23.644531 C 19.441406 22.773438 20.253906 21.917969 21.085938 21.085938 C 21.917969 20.253906 22.773438 19.441406 23.644531 18.648438 C 24.519531 17.859375 25.410156 17.089844 26.320312 16.339844 C 27.230469 15.59375 28.160156 14.871094 29.105469 14.167969 C 30.054688 13.464844 31.015625 12.789062 31.996094 12.132812 C 32.976562 11.476562 33.96875 10.847656 34.980469 10.242188 C 35.992188 9.636719 37.015625 9.054688 38.054688 8.5 C 39.09375 7.945312 40.148438 7.414062 41.210938 6.914062 C 42.277344 6.410156 43.355469 5.929688 44.441406 5.480469 C 45.53125 5.03125 46.628906 4.605469 47.738281 4.207031 C 48.847656 3.8125 49.96875 3.441406 51.09375 3.101562 C 52.222656 2.757812 53.355469 2.445312 54.5 2.15625 C 55.644531 1.871094 56.792969 1.613281 57.949219 1.382812 C 59.101562 1.152344 60.265625 0.953125 61.429688 0.777344 C 62.59375 0.605469 63.765625 0.460938 64.9375 0.347656 C 66.109375 0.230469 67.285156 0.144531 68.460938 0.0859375 C 69.636719 0.0273438 70.816406 0 71.992188 0 L 1008.007812 0 C 1009.183594 0 1010.363281 0.0273438 1011.539062 0.0859375 C 1012.714844 0.144531 1013.890625 0.230469 1015.0625 0.347656 C 1016.234375 0.460938 1017.40625 0.605469 1018.570312 0.777344 C 1019.734375 0.953125 1020.898438 1.152344 1022.050781 1.382812 C 1023.207031 1.613281 1024.355469 1.871094 1025.5 2.15625 C 1026.644531 2.445312 1027.777344 2.757812 1028.90625 3.101562 C 1030.03125 3.441406 1031.152344 3.8125 1032.261719 4.207031 C 1033.371094 4.605469 1034.46875 5.03125 1035.558594 5.480469 C 1036.644531 5.929688 1037.722656 6.410156 1038.789062 6.914062 C 1039.851562 7.414062 1040.90625 7.945312 1041.945312 8.5 C 1042.984375 9.054688 1044.007812 9.636719 1045.019531 10.242188 C 1046.03125 10.847656 1047.023438 11.476562 1048.003906 12.132812 C 1048.984375 12.789062 1049.945312 13.464844 1050.894531 14.167969 C 1051.839844 14.871094 1052.769531 15.59375 1053.679688 16.339844 C 1054.589844 17.089844 1055.480469 17.859375 1056.355469 18.648438 C 1057.226562 19.441406 1058.082031 20.253906 1058.914062 21.085938 C 1059.746094 21.917969 1060.558594 22.773438 1061.351562 23.644531 C 1062.140625 24.519531 1062.910156 25.410156 1063.660156 26.320312 C 1064.40625 27.230469 1065.128906 28.160156 1065.832031 29.105469 C 1066.535156 30.054688 1067.210938 31.015625 1067.867188 31.996094 C 1068.523438 32.976562 1069.152344 33.96875 1069.757812 34.980469 C 1070.363281 35.992188 1070.945312 37.015625 1071.5 38.054688 C 1072.054688 39.09375 1072.585938 40.148438 1073.085938 41.210938 C 1073.589844 42.277344 1074.070312 43.355469 1074.519531 44.441406 C 1074.96875 45.53125 1075.394531 46.628906 1075.792969 47.738281 C 1076.1875 48.847656 1076.558594 49.96875 1076.898438 51.09375 C 1077.242188 52.222656 1077.554688 53.355469 1077.84375 54.5 C 1078.128906 55.644531 1078.386719 56.792969 1078.617188 57.949219 C 1078.847656 59.101562 1079.046875 60.265625 1079.222656 61.429688 C 1079.394531 62.59375 1079.539062 63.765625 1079.652344 64.9375 C 1079.769531 66.109375 1079.855469 67.285156 1079.914062 68.460938 C 1079.972656 69.636719 1080 70.816406 1080 71.992188 L 1080 144.007812 C 1080 145.183594 1079.972656 146.363281 1079.914062 147.539062 C 1079.855469 148.714844 1079.769531 149.890625 1079.652344 151.0625 C 1079.539062 152.234375 1079.394531 153.40625 1079.222656 154.570312 C 1079.046875 155.734375 1078.847656 156.898438 1078.617188 158.050781 C 1078.386719 159.207031 1078.128906 160.355469 1077.84375 161.5 C 1077.554688 162.644531 1077.242188 163.777344 1076.898438 164.90625 C 1076.558594 166.03125 1076.1875 167.152344 1075.792969 168.261719 C 1075.394531 169.371094 1074.96875 170.46875 1074.519531 171.558594 C 1074.070312 172.644531 1073.589844 173.722656 1073.085938 174.789062 C 1072.585938 175.851562 1072.054688 176.90625 1071.5 177.945312 C 1070.945312 178.984375 1070.363281 180.007812 1069.757812 181.019531 C 1069.152344 182.03125 1068.523438 183.023438 1067.867188 184.003906 C 1067.210938 184.984375 1066.535156 185.945312 1065.832031 186.894531 C 1065.128906 187.839844 1064.40625 188.769531 1063.660156 189.679688 C 1062.910156 190.589844 1062.140625 191.480469 1061.351562 192.355469 C 1060.558594 193.226562 1059.746094 194.082031 1058.914062 194.914062 C 1058.082031 195.746094 1057.226562 196.558594 1056.355469 197.351562 C 1055.480469 198.140625 1054.589844 198.910156 1053.679688 199.660156 C 1052.769531 200.40625 1051.839844 201.128906 1050.894531 201.832031 C 1049.945312 202.535156 1048.984375 203.210938 1048.003906 203.867188 C 1047.023438 204.523438 1046.03125 205.152344 1045.019531 205.757812 C 1044.007812 206.363281 1042.984375 206.945312 1041.945312 207.5 C 1040.90625 208.054688 1039.851562 208.585938 1038.789062 209.089844 C 1037.722656 209.589844 1036.644531 210.070312 1035.558594 210.519531 C 1034.46875 210.972656 1033.371094 211.394531 1032.261719 211.792969 C 1031.152344 212.1875 1030.03125 212.558594 1028.90625 212.898438 C 1027.777344 213.242188 1026.644531 213.554688 1025.5 213.84375 C 1024.355469 214.128906 1023.207031 214.386719 1022.050781 214.617188 C 1020.898438 214.847656 1019.734375 215.046875 1018.570312 215.222656 C 1017.40625 215.394531 1016.234375 215.539062 1015.0625 215.652344 C 1013.890625 215.769531 1012.714844 215.855469 1011.539062 215.914062 C 1010.363281 215.972656 1009.183594 216 1008.007812 216 Z M 1008.007812 216 " fill-opacity="1" fill-rule="nonzero"/><path fill="#6facdb" d="M 935.992188 1008.007812 L 0 1008.007812 C 0 1009.183594 0.03125 1010.363281 0.0898438 1011.539062 C 0.148438 1012.714844 0.238281 1013.890625 0.355469 1015.0625 C 0.472656 1016.234375 0.617188 1017.402344 0.789062 1018.566406 C 0.964844 1019.730469 1.167969 1020.890625 1.398438 1022.046875 C 1.628906 1023.203125 1.886719 1024.351562 2.175781 1025.492188 C 2.460938 1026.632812 2.777344 1027.769531 3.117188 1028.894531 C 3.460938 1030.023438 3.832031 1031.140625 4.230469 1032.25 C 4.625 1033.359375 5.050781 1034.457031 5.503906 1035.542969 C 5.953125 1036.632812 6.433594 1037.707031 6.9375 1038.773438 C 7.441406 1039.835938 7.96875 1040.890625 8.527344 1041.925781 C 9.082031 1042.964844 9.660156 1043.992188 10.269531 1045 C 10.875 1046.011719 11.503906 1047.003906 12.160156 1047.984375 C 12.8125 1048.964844 13.492188 1049.925781 14.195312 1050.871094 C 14.894531 1051.816406 15.621094 1052.746094 16.367188 1053.65625 C 17.113281 1054.566406 17.882812 1055.457031 18.675781 1056.332031 C 19.464844 1057.203125 20.277344 1058.054688 21.109375 1058.890625 C 21.945312 1059.722656 22.796875 1060.535156 23.667969 1061.324219 C 24.542969 1062.117188 25.433594 1062.886719 26.34375 1063.632812 C 27.253906 1064.378906 28.183594 1065.105469 29.128906 1065.804688 C 30.074219 1066.507812 31.035156 1067.1875 32.015625 1067.839844 C 32.996094 1068.496094 33.988281 1069.125 35 1069.730469 C 36.007812 1070.335938 37.035156 1070.917969 38.074219 1071.472656 C 39.109375 1072.03125 40.164062 1072.558594 41.226562 1073.0625 C 42.292969 1073.566406 43.367188 1074.046875 44.457031 1074.496094 C 45.542969 1074.949219 46.640625 1075.375 47.75 1075.769531 C 48.859375 1076.167969 49.976562 1076.539062 51.105469 1076.882812 C 52.230469 1077.222656 53.367188 1077.539062 54.507812 1077.824219 C 55.648438 1078.113281 56.796875 1078.371094 57.953125 1078.601562 C 59.109375 1078.832031 60.269531 1079.035156 61.433594 1079.210938 C 62.597656 1079.382812 63.765625 1079.527344 64.9375 1079.644531 C 66.109375 1079.761719 67.285156 1079.851562 68.460938 1079.910156 C 69.636719 1079.96875 70.816406 1080 71.992188 1080 L 1008.007812 1080 C 1009.183594 1080 1010.363281 1079.96875 1011.539062 1079.910156 C 1012.714844 1079.851562 1013.890625 1079.761719 1015.0625 1079.644531 C 1016.234375 1079.527344 1017.402344 1079.382812 1018.566406 1079.210938 C 1019.730469 1079.035156 1020.890625 1078.832031 1022.046875 1078.601562 C 1023.203125 1078.371094 1024.351562 1078.113281 1025.492188 1077.824219 C 1026.632812 1077.539062 1027.769531 1077.222656 1028.894531 1076.882812 C 1030.023438 1076.539062 1031.140625 1076.167969 1032.25 1075.769531 C 1033.359375 1075.375 1034.457031 1074.949219 1035.542969 1074.496094 C 1036.632812 1074.046875 1037.707031 1073.566406 1038.773438 1073.0625 C 1039.835938 1072.558594 1040.890625 1072.03125 1041.925781 1071.472656 C 1042.964844 1070.917969 1043.992188 1070.335938 1045 1069.730469 C 1046.011719 1069.125 1047.003906 1068.496094 1047.984375 1067.839844 C 1048.964844 1067.1875 1049.925781 1066.507812 1050.871094 1065.804688 C 1051.816406 1065.105469 1052.746094 1064.378906 1053.65625 1063.632812 C 1054.566406 1062.886719 1055.457031 1062.117188 1056.332031 1061.324219 C 1057.203125 1060.535156 1058.054688 1059.722656 1058.890625 1058.890625 C 1059.722656 1058.054688 1060.535156 1057.203125 1061.324219 1056.332031 C 1062.117188 1055.457031 1062.886719 1054.566406 1063.632812 1053.65625 C 1064.378906 1052.746094 1065.105469 1051.816406 1065.804688 1050.871094 C 1066.507812 1049.925781 1067.1875 1048.964844 1067.839844 1047.984375 C 1068.496094 1047.003906 1069.125 1046.011719 1069.730469 1045 C 1070.335938 1043.992188 1070.917969 1042.964844 1071.472656 1041.925781 C 1072.03125 1040.890625 1072.558594 1039.835938 1073.0625 1038.773438 C 1073.566406 1037.707031 1074.046875 1036.632812 1074.496094 1035.542969 C 1074.949219 1034.457031 1075.375 1033.359375 1075.769531 1032.25 C 1076.167969 1031.140625 1076.539062 1030.023438 1076.882812 1028.894531 C 1077.222656 1027.769531 1077.539062 1026.632812 1077.824219 1025.492188 C 1078.113281 1024.351562 1078.371094 1023.203125 1078.601562 1022.046875 C 1078.832031 1020.890625 1079.035156 1019.730469 1079.210938 1018.566406 C 1079.382812 1017.402344 1079.527344 1016.234375 1079.644531 1015.0625 C 1079.761719 1013.890625 1079.851562 1012.714844 1079.910156 1011.539062 C 1079.96875 1010.363281 1080 1009.183594 1080 1008.007812 L 1080 935.992188 C 1080 934.816406 1079.96875 933.636719 1079.910156 932.460938 C 1079.851562 931.285156 1079.761719 930.109375 1079.644531 928.9375 C 1079.527344 927.765625 1079.382812 926.597656 1079.210938 925.433594 C 1079.035156 924.269531 1078.832031 923.109375 1078.601562 921.953125 C 1078.371094 920.796875 1078.113281 919.648438 1077.824219 918.507812 C 1077.539062 917.367188 1077.222656 916.230469 1076.882812 915.105469 C 1076.539062 913.976562 1076.167969 912.859375 1075.769531 911.75 C 1075.375 910.640625 1074.949219 909.542969 1074.496094 908.457031 C 1074.046875 907.367188 1073.566406 906.292969 1073.0625 905.226562 C 1072.558594 904.164062 1072.03125 903.109375 1071.472656 902.074219 C 1070.917969 901.035156 1070.335938 900.007812 1069.730469 899 C 1069.125 897.988281 1068.496094 896.996094 1067.839844 896.015625 C 1067.1875 895.035156 1066.507812 894.074219 1065.804688 893.128906 C 1065.105469 892.183594 1064.378906 891.253906 1063.632812 890.34375 C 1062.886719 889.433594 1062.117188 888.542969 1061.324219 887.667969 C 1060.535156 886.796875 1059.722656 885.945312 1058.890625 885.109375 C 1058.054688 884.277344 1057.203125 883.464844 1056.332031 882.675781 C 1055.457031 881.882812 1054.566406 881.113281 1053.65625 880.367188 C 1052.746094 879.621094 1051.816406 878.894531 1050.871094 878.195312 C 1049.925781 877.492188 1048.964844 876.8125 1047.984375 876.160156 C 1047.003906 875.503906 1046.011719 874.875 1045 874.269531 C 1043.992188 873.660156 1042.964844 873.082031 1041.925781 872.527344 C 1040.890625 871.96875 1039.835938 871.441406 1038.773438 870.9375 C 1037.707031 870.433594 1036.632812 869.953125 1035.542969 869.503906 C 1034.457031 869.050781 1033.359375 868.625 1032.25 868.230469 C 1031.140625 867.832031 1030.023438 867.460938 1028.894531 867.117188 C 1027.769531 866.777344 1026.632812 866.460938 1025.492188 866.175781 C 1024.351562 865.886719 1023.203125 865.628906 1022.046875 865.398438 C 1020.890625 865.167969 1019.730469 864.964844 1018.566406 864.789062 C 1017.402344 864.617188 1016.234375 864.472656 1015.0625 864.355469 C 1013.890625 864.238281 1012.714844 864.148438 1011.539062 864.089844 C 1010.363281 864.03125 1009.183594 864 1008.007812 864 L 1008.007812 935.992188 C 1008.003906 937.171875 1007.976562 938.347656 1007.917969 939.523438 C 1007.855469 940.703125 1007.769531 941.875 1007.652344 943.050781 C 1007.535156 944.222656 1007.390625 945.390625 1007.214844 946.554688 C 1007.042969 947.71875 1006.839844 948.882812 1006.609375 950.035156 C 1006.378906 951.191406 1006.121094 952.339844 1005.832031 953.484375 C 1005.546875 954.625 1005.230469 955.761719 1004.886719 956.886719 C 1004.542969 958.015625 1004.175781 959.132812 1003.777344 960.242188 C 1003.378906 961.351562 1002.953125 962.449219 1002.503906 963.539062 C 1002.050781 964.625 1001.574219 965.703125 1001.070312 966.769531 C 1000.566406 967.832031 1000.035156 968.882812 999.480469 969.921875 C 998.921875 970.960938 998.34375 971.988281 997.734375 972.996094 C 997.128906 974.007812 996.5 975.003906 995.84375 975.980469 C 995.191406 976.960938 994.511719 977.925781 993.808594 978.871094 C 993.105469 979.816406 992.382812 980.746094 991.632812 981.65625 C 990.886719 982.566406 990.117188 983.457031 989.328125 984.332031 C 988.535156 985.203125 987.722656 986.058594 986.890625 986.890625 C 986.058594 987.722656 985.203125 988.535156 984.332031 989.328125 C 983.457031 990.117188 982.566406 990.886719 981.65625 991.632812 C 980.746094 992.382812 979.816406 993.105469 978.871094 993.808594 C 977.925781 994.511719 976.960938 995.191406 975.980469 995.84375 C 975.003906 996.5 974.007812 997.128906 972.996094 997.734375 C 971.988281 998.34375 970.960938 998.921875 969.921875 999.480469 C 968.882812 1000.035156 967.832031 1000.566406 966.769531 1001.070312 C 965.703125 1001.574219 964.625 1002.050781 963.539062 1002.503906 C 962.449219 1002.953125 961.351562 1003.378906 960.242188 1003.777344 C 959.132812 1004.175781 958.015625 1004.542969 956.886719 1004.886719 C 955.761719 1005.230469 954.625 1005.546875 953.484375 1005.832031 C 952.339844 1006.121094 951.191406 1006.378906 950.035156 1006.609375 C 948.882812 1006.839844 947.71875 1007.042969 946.554688 1007.214844 C 945.390625 1007.390625 944.222656 1007.535156 943.050781 1007.652344 C 941.875 1007.769531 940.703125 1007.855469 939.523438 1007.917969 C 938.347656 1007.976562 937.171875 1008.003906 935.992188 1008.007812 Z M 935.992188 1008.007812 " fill-opacity="1" fill-rule="nonzero"/><path fill="#f0e5e1" d="M 935.992188 576.007812 L 0 576.007812 C 0 577.183594 0.03125 578.363281 0.0898438 579.539062 C 0.148438 580.714844 0.238281 581.890625 0.355469 583.0625 C 0.472656 584.234375 0.617188 585.402344 0.789062 586.566406 C 0.964844 587.730469 1.167969 588.890625 1.398438 590.046875 C 1.628906 591.203125 1.886719 592.351562 2.175781 593.492188 C 2.460938 594.632812 2.777344 595.769531 3.117188 596.894531 C 3.460938 598.023438 3.832031 599.140625 4.230469 600.25 C 4.628906 601.359375 5.050781 602.457031 5.503906 603.542969 C 5.953125 604.632812 6.433594 605.707031 6.9375 606.773438 C 7.441406 607.835938 7.96875 608.890625 8.527344 609.925781 C 9.082031 610.964844 9.664062 611.992188 10.269531 613 C 10.875 614.011719 11.503906 615.003906 12.160156 615.984375 C 12.8125 616.964844 13.492188 617.925781 14.195312 618.871094 C 14.894531 619.816406 15.621094 620.746094 16.367188 621.65625 C 17.113281 622.566406 17.882812 623.457031 18.675781 624.332031 C 19.464844 625.203125 20.277344 626.054688 21.109375 626.890625 C 21.945312 627.722656 22.796875 628.535156 23.667969 629.324219 C 24.542969 630.117188 25.433594 630.886719 26.34375 631.632812 C 27.253906 632.378906 28.183594 633.105469 29.128906 633.804688 C 30.074219 634.507812 31.035156 635.1875 32.015625 635.839844 C 32.996094 636.496094 33.988281 637.125 35 637.730469 C 36.011719 638.335938 37.035156 638.917969 38.074219 639.472656 C 39.109375 640.03125 40.164062 640.558594 41.226562 641.0625 C 42.292969 641.566406 43.367188 642.046875 44.457031 642.496094 C 45.542969 642.949219 46.640625 643.375 47.75 643.769531 C 48.859375 644.167969 49.976562 644.539062 51.105469 644.882812 C 52.230469 645.222656 53.367188 645.539062 54.507812 645.824219 C 55.648438 646.113281 56.796875 646.371094 57.953125 646.601562 C 59.109375 646.832031 60.269531 647.035156 61.433594 647.210938 C 62.597656 647.382812 63.765625 647.527344 64.9375 647.644531 C 66.109375 647.761719 67.285156 647.851562 68.460938 647.910156 C 69.636719 647.96875 70.816406 648 71.992188 648 L 1008.007812 648 C 1009.183594 648 1010.363281 647.96875 1011.539062 647.910156 C 1012.714844 647.851562 1013.890625 647.761719 1015.0625 647.644531 C 1016.234375 647.527344 1017.402344 647.382812 1018.566406 647.210938 C 1019.730469 647.035156 1020.890625 646.832031 1022.046875 646.601562 C 1023.203125 646.371094 1024.351562 646.113281 1025.492188 645.824219 C 1026.632812 645.539062 1027.769531 645.222656 1028.894531 644.882812 C 1030.023438 644.539062 1031.140625 644.167969 1032.25 643.769531 C 1033.359375 643.375 1034.457031 642.949219 1035.542969 642.496094 C 1036.632812 642.046875 1037.707031 641.566406 1038.773438 641.0625 C 1039.835938 640.558594 1040.890625 640.03125 1041.925781 639.472656 C 1042.964844 638.917969 1043.992188 638.335938 1045 637.730469 C 1046.011719 637.125 1047.003906 636.496094 1047.984375 635.839844 C 1048.964844 635.1875 1049.925781 634.507812 1050.871094 633.804688 C 1051.816406 633.105469 1052.746094 632.378906 1053.65625 631.632812 C 1054.566406 630.886719 1055.457031 630.117188 1056.332031 629.324219 C 1057.203125 628.535156 1058.054688 627.722656 1058.890625 626.890625 C 1059.722656 626.054688 1060.535156 625.203125 1061.324219 624.332031 C 1062.117188 623.457031 1062.886719 622.566406 1063.632812 621.65625 C 1064.378906 620.746094 1065.105469 619.816406 1065.804688 618.871094 C 1066.507812 617.925781 1067.1875 616.964844 1067.839844 615.984375 C 1068.496094 615.003906 1069.125 614.011719 1069.730469 613 C 1070.335938 611.992188 1070.917969 610.964844 1071.472656 609.925781 C 1072.03125 608.890625 1072.558594 607.835938 1073.0625 606.773438 C 1073.566406 605.707031 1074.046875 604.632812 1074.496094 603.542969 C 1074.949219 602.457031 1075.375 601.359375 1075.769531 600.25 C 1076.167969 599.140625 1076.539062 598.023438 1076.882812 596.894531 C 1077.222656 595.769531 1077.539062 594.632812 1077.824219 593.492188 C 1078.113281 592.351562 1078.371094 591.203125 1078.601562 590.046875 C 1078.832031 588.890625 1079.035156 587.730469 1079.210938 586.566406 C 1079.382812 585.402344 1079.527344 584.234375 1079.644531 583.0625 C 1079.761719 581.890625 1079.851562 580.714844 1079.910156 579.539062 C 1079.96875 578.363281 1080 577.183594 1080 576.007812 L 1080 503.992188 C 1080 502.816406 1079.96875 501.636719 1079.910156 500.460938 C 1079.851562 499.285156 1079.761719 498.109375 1079.644531 496.9375 C 1079.527344 495.765625 1079.382812 494.597656 1079.210938 493.433594 C 1079.035156 492.269531 1078.832031 491.109375 1078.601562 489.953125 C 1078.371094 488.796875 1078.113281 487.648438 1077.824219 486.507812 C 1077.539062 485.367188 1077.222656 484.230469 1076.882812 483.105469 C 1076.539062 481.976562 1076.167969 480.859375 1075.769531 479.75 C 1075.375 478.640625 1074.949219 477.542969 1074.496094 476.457031 C 1074.046875 475.367188 1073.566406 474.292969 1073.0625 473.226562 C 1072.558594 472.164062 1072.03125 471.109375 1071.472656 470.074219 C 1070.917969 469.035156 1070.335938 468.007812 1069.730469 467 C 1069.125 465.988281 1068.496094 464.996094 1067.839844 464.015625 C 1067.1875 463.035156 1066.507812 462.074219 1065.804688 461.128906 C 1065.105469 460.183594 1064.378906 459.253906 1063.632812 458.34375 C 1062.886719 457.433594 1062.117188 456.542969 1061.324219 455.667969 C 1060.535156 454.796875 1059.722656 453.945312 1058.890625 453.109375 C 1058.054688 452.277344 1057.203125 451.464844 1056.332031 450.675781 C 1055.457031 449.882812 1054.566406 449.113281 1053.65625 448.367188 C 1052.746094 447.621094 1051.816406 446.894531 1050.871094 446.195312 C 1049.925781 445.492188 1048.964844 444.8125 1047.984375 444.160156 C 1047.003906 443.503906 1046.011719 442.875 1045 442.269531 C 1043.992188 441.660156 1042.964844 441.082031 1041.925781 440.527344 C 1040.890625 439.96875 1039.835938 439.441406 1038.773438 438.9375 C 1037.707031 438.433594 1036.632812 437.953125 1035.542969 437.503906 C 1034.457031 437.050781 1033.359375 436.625 1032.25 436.230469 C 1031.140625 435.832031 1030.023438 435.460938 1028.894531 435.117188 C 1027.769531 434.777344 1026.632812 434.460938 1025.492188 434.175781 C 1024.351562 433.886719 1023.203125 433.628906 1022.046875 433.398438 C 1020.890625 433.167969 1019.730469 432.964844 1018.566406 432.789062 C 1017.402344 432.617188 1016.234375 432.472656 1015.0625 432.355469 C 1013.890625 432.238281 1012.714844 432.148438 1011.539062 432.089844 C 1010.363281 432.03125 1009.183594 432 1008.007812 432 L 1008.007812 503.992188 C 1008.003906 505.171875 1007.976562 506.347656 1007.917969 507.523438 C 1007.855469 508.703125 1007.769531 509.875 1007.652344 511.050781 C 1007.535156 512.222656 1007.390625 513.390625 1007.214844 514.554688 C 1007.042969 515.71875 1006.839844 516.882812 1006.609375 518.035156 C 1006.378906 519.191406 1006.121094 520.339844 1005.832031 521.484375 C 1005.546875 522.625 1005.230469 523.761719 1004.886719 524.886719 C 1004.542969 526.015625 1004.175781 527.132812 1003.777344 528.242188 C 1003.378906 529.351562 1002.953125 530.449219 1002.503906 531.539062 C 1002.050781 532.625 1001.574219 533.703125 1001.070312 534.769531 C 1000.566406 535.832031 1000.035156 536.882812 999.480469 537.921875 C 998.921875 538.960938 998.34375 539.988281 997.734375 540.996094 C 997.128906 542.007812 996.5 543.003906 995.84375 543.980469 C 995.191406 544.960938 994.511719 545.925781 993.808594 546.871094 C 993.105469 547.816406 992.382812 548.746094 991.632812 549.65625 C 990.886719 550.566406 990.117188 551.457031 989.328125 552.332031 C 988.535156 553.203125 987.722656 554.058594 986.890625 554.890625 C 986.058594 555.722656 985.203125 556.535156 984.332031 557.328125 C 983.457031 558.117188 982.566406 558.886719 981.65625 559.632812 C 980.746094 560.382812 979.816406 561.105469 978.871094 561.808594 C 977.925781 562.511719 976.960938 563.191406 975.980469 563.84375 C 975.003906 564.5 974.007812 565.128906 972.996094 565.734375 C 971.988281 566.34375 970.960938 566.921875 969.921875 567.480469 C 968.882812 568.035156 967.832031 568.566406 966.769531 569.070312 C 965.703125 569.574219 964.625 570.050781 963.539062 570.503906 C 962.449219 570.953125 961.351562 571.378906 960.242188 571.777344 C 959.132812 572.175781 958.015625 572.542969 956.886719 572.886719 C 955.761719 573.230469 954.625 573.546875 953.484375 573.832031 C 952.339844 574.121094 951.191406 574.378906 950.035156 574.609375 C 948.882812 574.839844 947.71875 575.042969 946.554688 575.214844 C 945.390625 575.390625 944.222656 575.535156 943.050781 575.652344 C 941.875 575.769531 940.703125 575.855469 939.523438 575.917969 C 938.347656 575.976562 937.171875 576.003906 935.992188 576.007812 Z M 935.992188 576.007812 " fill-opacity="1" fill-rule="nonzero"/><path fill="#f0e5e1" d="M 935.992188 144.007812 L 0 144.007812 C 0 145.183594 0.03125 146.363281 0.0898438 147.539062 C 0.148438 148.714844 0.238281 149.890625 0.355469 151.0625 C 0.472656 152.234375 0.617188 153.402344 0.789062 154.566406 C 0.964844 155.730469 1.167969 156.890625 1.398438 158.046875 C 1.628906 159.203125 1.886719 160.351562 2.175781 161.492188 C 2.460938 162.632812 2.777344 163.769531 3.117188 164.894531 C 3.460938 166.023438 3.832031 167.140625 4.230469 168.25 C 4.625 169.359375 5.050781 170.457031 5.503906 171.542969 C 5.953125 172.632812 6.433594 173.707031 6.9375 174.773438 C 7.441406 175.835938 7.96875 176.890625 8.527344 177.925781 C 9.082031 178.964844 9.660156 179.992188 10.269531 181 C 10.875 182.011719 11.503906 183.003906 12.160156 183.984375 C 12.8125 184.964844 13.492188 185.925781 14.195312 186.871094 C 14.894531 187.816406 15.621094 188.746094 16.367188 189.65625 C 17.113281 190.566406 17.882812 191.457031 18.675781 192.332031 C 19.464844 193.203125 20.277344 194.054688 21.109375 194.890625 C 21.945312 195.722656 22.796875 196.535156 23.667969 197.324219 C 24.542969 198.117188 25.433594 198.886719 26.34375 199.632812 C 27.253906 200.378906 28.183594 201.105469 29.128906 201.804688 C 30.074219 202.507812 31.035156 203.1875 32.015625 203.839844 C 32.996094 204.496094 33.988281 205.125 35 205.730469 C 36.007812 206.335938 37.035156 206.917969 38.074219 207.472656 C 39.109375 208.03125 40.164062 208.558594 41.226562 209.0625 C 42.292969 209.566406 43.367188 210.046875 44.457031 210.496094 C 45.542969 210.949219 46.640625 211.375 47.75 211.769531 C 48.859375 212.167969 49.976562 212.539062 51.105469 212.882812 C 52.230469 213.222656 53.367188 213.539062 54.507812 213.824219 C 55.648438 214.113281 56.796875 214.371094 57.953125 214.601562 C 59.109375 214.832031 60.269531 215.035156 61.433594 215.210938 C 62.597656 215.382812 63.765625 215.527344 64.9375 215.644531 C 66.109375 215.761719 67.285156 215.851562 68.460938 215.910156 C 69.636719 215.96875 70.816406 216 71.992188 216 L 1008.007812 216 C 1009.183594 216 1010.363281 215.96875 1011.539062 215.910156 C 1012.714844 215.851562 1013.890625 215.761719 1015.0625 215.644531 C 1016.234375 215.527344 1017.402344 215.382812 1018.566406 215.210938 C 1019.730469 215.035156 1020.890625 214.832031 1022.046875 214.601562 C 1023.203125 214.371094 1024.351562 214.113281 1025.492188 213.824219 C 1026.632812 213.539062 1027.769531 213.222656 1028.894531 212.882812 C 1030.023438 212.539062 1031.140625 212.167969 1032.25 211.769531 C 1033.359375 211.375 1034.457031 210.949219 1035.542969 210.496094 C 1036.632812 210.046875 1037.707031 209.566406 1038.773438 209.0625 C 1039.835938 208.558594 1040.890625 208.03125 1041.925781 207.472656 C 1042.964844 206.917969 1043.992188 206.335938 1045 205.730469 C 1046.011719 205.125 1047.003906 204.496094 1047.984375 203.839844 C 1048.964844 203.1875 1049.925781 202.507812 1050.871094 201.804688 C 1051.816406 201.105469 1052.746094 200.378906 1053.65625 199.632812 C 1054.566406 198.886719 1055.457031 198.117188 1056.332031 197.324219 C 1057.203125 196.535156 1058.054688 195.722656 1058.890625 194.890625 C 1059.722656 194.054688 1060.535156 193.203125 1061.324219 192.332031 C 1062.117188 191.457031 1062.886719 190.566406 1063.632812 189.65625 C 1064.378906 188.746094 1065.105469 187.816406 1065.804688 186.871094 C 1066.507812 185.925781 1067.1875 184.964844 1067.839844 183.984375 C 1068.496094 183.003906 1069.125 182.011719 1069.730469 181 C 1070.335938 179.992188 1070.917969 178.964844 1071.472656 177.925781 C 1072.03125 176.890625 1072.558594 175.835938 1073.0625 174.773438 C 1073.566406 173.707031 1074.046875 172.632812 1074.496094 171.542969 C 1074.949219 170.457031 1075.375 169.359375 1075.769531 168.25 C 1076.167969 167.140625 1076.539062 166.023438 1076.882812 164.894531 C 1077.222656 163.769531 1077.539062 162.632812 1077.824219 161.492188 C 1078.113281 160.351562 1078.371094 159.203125 1078.601562 158.046875 C 1078.832031 156.890625 1079.035156 155.730469 1079.210938 154.566406 C 1079.382812 153.402344 1079.527344 152.234375 1079.644531 151.0625 C 1079.761719 149.890625 1079.851562 148.714844 1079.910156 147.539062 C 1079.96875 146.363281 1080 145.183594 1080 144.007812 L 1080 71.992188 C 1080 70.816406 1079.96875 69.636719 1079.910156 68.460938 C 1079.851562 67.285156 1079.761719 66.109375 1079.644531 64.9375 C 1079.527344 63.765625 1079.382812 62.597656 1079.210938 61.433594 C 1079.035156 60.269531 1078.832031 59.109375 1078.601562 57.953125 C 1078.371094 56.796875 1078.113281 55.648438 1077.824219 54.507812 C 1077.539062 53.367188 1077.222656 52.230469 1076.882812 51.105469 C 1076.539062 49.976562 1076.167969 48.859375 1075.769531 47.75 C 1075.375 46.640625 1074.949219 45.542969 1074.496094 44.457031 C 1074.046875 43.367188 1073.566406 42.292969 1073.0625 41.226562 C 1072.558594 40.164062 1072.03125 39.109375 1071.472656 38.074219 C 1070.917969 37.035156 1070.335938 36.007812 1069.730469 35 C 1069.125 33.988281 1068.496094 32.996094 1067.839844 32.015625 C 1067.1875 31.035156 1066.507812 30.074219 1065.804688 29.128906 C 1065.105469 28.183594 1064.378906 27.253906 1063.632812 26.34375 C 1062.886719 25.433594 1062.117188 24.542969 1061.324219 23.667969 C 1060.535156 22.796875 1059.722656 21.945312 1058.890625 21.109375 C 1058.054688 20.277344 1057.203125 19.464844 1056.332031 18.675781 C 1055.457031 17.882812 1054.566406 17.113281 1053.65625 16.367188 C 1052.746094 15.621094 1051.816406 14.894531 1050.871094 14.195312 C 1049.925781 13.492188 1048.964844 12.8125 1047.984375 12.160156 C 1047.003906 11.503906 1046.011719 10.875 1045 10.269531 C 1043.992188 9.664062 1042.964844 9.082031 1041.925781 8.527344 C 1040.890625 7.96875 1039.835938 7.441406 1038.773438 6.9375 C 1037.707031 6.433594 1036.632812 5.953125 1035.542969 5.503906 C 1034.457031 5.050781 1033.359375 4.625 1032.25 4.230469 C 1031.140625 3.832031 1030.023438 3.460938 1028.894531 3.117188 C 1027.769531 2.777344 1026.632812 2.460938 1025.492188 2.175781 C 1024.351562 1.886719 1023.203125 1.628906 1022.046875 1.398438 C 1020.890625 1.167969 1019.730469 0.964844 1018.566406 0.789062 C 1017.402344 0.617188 1016.234375 0.472656 1015.0625 0.355469 C 1013.890625 0.238281 1012.714844 0.148438 1011.539062 0.0898438 C 1010.363281 0.03125 1009.183594 0 1008.007812 0 L 1008.007812 71.992188 C 1008.003906 73.171875 1007.976562 74.347656 1007.917969 75.523438 C 1007.855469 76.703125 1007.769531 77.875 1007.652344 79.050781 C 1007.535156 80.222656 1007.390625 81.390625 1007.214844 82.554688 C 1007.042969 83.722656 1006.839844 84.882812 1006.609375 86.035156 C 1006.378906 87.191406 1006.121094 88.339844 1005.832031 89.484375 C 1005.546875 90.625 1005.230469 91.761719 1004.886719 92.886719 C 1004.542969 94.015625 1004.175781 95.132812 1003.777344 96.242188 C 1003.378906 97.351562 1002.953125 98.449219 1002.503906 99.539062 C 1002.050781 100.625 1001.574219 101.703125 1001.070312 102.769531 C 1000.566406 103.832031 1000.035156 104.882812 999.480469 105.921875 C 998.921875 106.960938 998.34375 107.988281 997.734375 108.996094 C 997.128906 110.007812 996.5 111.003906 995.84375 111.980469 C 995.191406 112.960938 994.511719 113.925781 993.808594 114.871094 C 993.105469 115.816406 992.382812 116.746094 991.632812 117.65625 C 990.886719 118.566406 990.117188 119.457031 989.328125 120.332031 C 988.535156 121.203125 987.722656 122.058594 986.890625 122.890625 C 986.058594 123.722656 985.203125 124.535156 984.332031 125.328125 C 983.457031 126.117188 982.566406 126.886719 981.65625 127.636719 C 980.746094 128.382812 979.816406 129.105469 978.871094 129.808594 C 977.925781 130.511719 976.960938 131.191406 975.980469 131.84375 C 975.003906 132.5 974.007812 133.128906 972.996094 133.734375 C 971.988281 134.34375 970.960938 134.921875 969.921875 135.480469 C 968.882812 136.035156 967.832031 136.566406 966.769531 137.070312 C 965.703125 137.574219 964.625 138.050781 963.539062 138.503906 C 962.449219 138.953125 961.351562 139.378906 960.242188 139.777344 C 959.132812 140.175781 958.015625 140.542969 956.886719 140.886719 C 955.761719 141.230469 954.625 141.546875 953.484375 141.832031 C 952.339844 142.121094 951.191406 142.378906 950.035156 142.609375 C 948.882812 142.839844 947.71875 143.042969 946.554688 143.214844 C 945.390625 143.390625 944.222656 143.535156 943.050781 143.652344 C 941.875 143.769531 940.703125 143.855469 939.523438 143.917969 C 938.347656 143.976562 937.171875 144.003906 935.992188 144.007812 Z M 935.992188 144.007812 " fill-opacity="1" fill-rule="nonzero"/></svg>